# xmcd
#
# Track frame offsets:
#	150
#	32240
#	52185
#	64712
#	77379
#	112470
#	124422
#	194065
#	210972
#	234687
#
# Disc length: 3299 seconds
#
# Revision: 1
# Processed by: cddbd v1.5.2PL0 Copyright (c) Steve Scherf et al.
# Submitted via: audiograbber 1.83.01
#
DISCID=970ce10a
DTITLE=Fleetwood Mac featuring Peter Green - Vintage Mac
DYEAR=1967
DGENRE=Blues
TTITLE0=Black Magic Woman
TTITLE1=Stranger Blues
TTITLE2=Oh well
TTITLE3=Albatross
TTITLE4=Rattlesnake shake
TTITLE5=Looking for somebody
TTITLE6=The Green Manalishi
TTITLE7=World in harmony
TTITLE8=Jumpin' at shadows
TTITLE9=Man of the world
EXTD=
EXTT0=
EXTT1=
EXTT2=
EXTT3=live at the BBC 
EXTT4=
EXTT5=Live at the BBC
EXTT6=
EXTT7=
EXTT8=
EXTT9=Live at the BBC
PLAYORDER=
